Coordinates
version=1
nRows=17
nColumns=24
inDegrees=yes

Units are S.I. units (second, meters, Newtons, ...)
Angles are in degrees.

endheader
time	pelvis_tilt	pelvis_list	pelvis_rotation	pelvis_tx	pelvis_ty	pelvis_tz	hip_flexion_r	hip_adduction_r	hip_rotation_r	knee_angle_r	ankle_angle_r	subtalar_angle_r	mtp_angle_r	hip_flexion_l	hip_adduction_l	hip_rotation_l	knee_angle_l	ankle_angle_l	subtalar_angle_l	mtp_angle_l	lumbar_extension	lumbar_bending	lumbar_rotation
      1.05700000	     -3.66348889	     -6.19062124	      5.77812850	      0.51542362	      1.00567431	      0.34233602	     10.79900238	     10.13767321	      1.27723307	    -14.10383837	      6.00926870	    -15.16033735	      3.50626303	     21.46465401	     -6.36877196	      4.73401898	    -70.59983885	      2.75088057	     -0.64823513	      8.04700069	     -6.03383178	     15.45969438	     -3.48357280
      1.06116667	     -3.61841978	     -6.01484488	      5.62560594	      0.52005758	      1.00650750	      0.34271341	     10.18663129	     10.03936378	      1.59522392	    -13.59538944	      5.89509290	    -15.30604188	      3.53381688	     21.95798596	     -6.25127186	      4.56784191	    -70.20252750	      3.35637637	     -0.42439368	      7.91567790	     -6.17077516	     15.20676518	     -3.15571993
      1.06533333	     -3.59188756	     -5.84258887	      5.47989204	      0.52468490	      1.00726903	      0.34308267	      9.60261572	      9.93646238	      1.89358123	    -13.10281938	      5.81845314	    -15.42906318	      3.56354250	     22.46457351	     -6.13857167	      4.40552184	    -69.76549932	      3.92601589	     -0.19237054	      7.77222500	     -6.27862389	     14.93874623	     -2.87755568
      1.06950000	     -3.53165915	     -5.63916813	      5.33603086	      0.52931543	      1.00805145	      0.34343218	      8.98698529	      9.79681220	      2.17655093	    -12.63075255	      5.81103697	    -15.50854554	      3.58657520	     22.90933144	     -5.99534001	      4.23751543	    -69.26624302	      4.44266690	      0.03510228	      7.66516101	     -6.42098700	     14.63659356	     -2.64033350
      1.07366667	     -3.49102452	     -5.44955271	      5.18650720	      0.53395349	      1.00877423	      0.34375709	      8.39000636	      9.66409938	      2.46893645	    -12.14809360	      5.76024615	    -15.60315478	      3.60767733	     23.36160614	     -5.86237186	      4.07303677	    -68.72305562	      4.93063999	      0.20961398	      7.55511309	     -6.54068877	     14.35522896	     -2.37407386
      1.07783333	     -3.44895141	     -5.28239875	      5.03078739	      0.53859003	      1.00944541	      0.34407298	      7.78751498	      9.55071141	      2.77254560	    -11.64631590	      5.66453910	    -15.71104585	      3.63422581	     23.80327816	     -5.75665805	      3.91029719	    -68.14493791	      5.39074599	      0.32981141	      7.40744605	     -6.66105698	     14.11486286	     -2.08747838
      1.08200000	     -3.43652537	     -5.06920085	      4.87155835	      0.54319739	      1.01004593	      0.34435423	      7.24919022	      9.37410758	      3.02497195	    -11.22611394	      5.66313066	    -15.70313805	      3.64593807	     24.25116846	     -5.58812420	      3.74941510	    -67.50699656	      5.78834749	      0.44301176	      7.34939214	     -6.74137252	     13.83251098	     -1.96054684
      1.08616667	     -3.34439234	     -4.89318604	      4.72380965	      0.54786226	      1.01072105	      0.34464483	      6.58355870	      9.24487333	      3.31942120	    -10.71002719	      5.63932776	    -15.81327799	      3.66298267	     24.60221991	     -5.47853251	      3.59193818	    -66.82884170	      6.14892915	      0.53160054	      7.24309769	     -6.91404247	     13.55442616	     -1.62622123
      1.09033333	     -3.29422348	     -4.69675649	      4.56323550	      0.55250589	      1.01130242	      0.34490646	      5.98425336	      9.08070352	      3.59010639	    -10.24100421	      5.61856487	    -15.85639099	      3.68023544	     24.97630638	     -5.33253797	      3.43917543	    -66.10108825	      6.46311514	      0.55605338	      7.14144823	     -7.03490487	     13.28230777	     -1.38618576
      1.09450000	     -3.28594708	     -4.50290570	      4.38845713	      0.55714287	      1.01178173	      0.34515077	      5.45018399	      8.90656654	      3.83177497	     -9.81194367	      5.58440955	    -15.81360562	      3.69023177	     25.37859402	     -5.18344100	      3.28812812	    -65.33367511	      6.75606218	      0.55784720	      7.08341459	     -7.09856184	     13.03482136	     -1.23636005
      1.09866667	     -3.18898656	     -4.32902589	      4.23558296	      0.56180204	      1.01234759	      0.34538312	      4.78587266	      8.75912778	      4.10689703	     -9.30486895	      5.58722818	    -15.88159249	      3.70727015	     25.67425045	     -5.06040332	      3.16118905	    -64.52396692	      6.97858187	      0.51304652	      6.97384385	     -7.28341546	     12.77276732	     -0.90290283
      1.10283333	     -3.13093119	     -4.13597400	      4.06791330	      0.56645638	      1.01281894	      0.34559833	      4.18530748	      8.57940009	      4.34690979	     -8.84721899	      5.59209162	    -15.86827081	      3.72375381	     25.98771722	     -4.90967440	      3.03170345	    -63.66677870	      7.17276612	      0.44664572	      6.87638088	     -7.40683161	     12.51033538	     -0.67833136
      1.10700000	     -3.07714661	     -3.95677038	      3.89719478	      0.57111420	      1.01323728	      0.34580676	      3.59190157	      8.40848920	      4.58488099	     -8.39108720	      5.59804712	    -15.84012724	      3.74153335	     26.29183909	     -4.77025668	      2.91773889	    -62.77416602	      7.33563470	      0.35088271	      6.77341587	     -7.52803665	     12.26284543	     -0.43366827
      1.11116667	     -3.02092214	     -3.77441043	      3.72758216	      0.57578113	      1.01363016	      0.34598980	      2.99762091	      8.22688914	      4.80402673	     -7.93815853	      5.61589932	    -15.78885710	      3.75834521	     26.57260480	     -4.62197379	      2.81650098	    -61.83472670	      7.45324251	      0.22826085	      6.67936361	     -7.64702664	     12.01687124	     -0.21074459
      1.11533333	     -2.97267749	     -3.59200129	      3.55227298	      0.58044358	      1.01396987	      0.34616071	      2.41958629	      8.03873280	      5.01278459	     -7.49942117	      5.64459665	    -15.71483130	      3.77628949	     26.84321173	     -4.46865901	      2.72636940	    -60.85405625	      7.53603533	      0.07475399	      6.58235994	     -7.76233394	     11.77047324	      0.02416198
      1.11950000	     -2.91798122	     -3.41800014	      3.38006656	      0.58511601	      1.01426229	      0.34632321	      1.83633290	      7.85478499	      5.20206351	     -7.06197572	      5.68813999	    -15.62655009	      3.79285474	     27.09242491	     -4.32352032	      2.64934380	    -59.83931193	      7.58509012	     -0.09035788	      6.49642809	     -7.87323679	     11.53463355	      0.24217017
      1.12366667	     -2.89616857	     -3.24106321	      3.19011778	      0.58979162	      1.01448025	      0.34649128	      1.30098913	      7.65992192	      5.38690832	     -6.64872393	      5.70219279	    -15.49611834	      3.80400399	     27.35453796	     -4.17728200	      2.56739401	    -58.78212748	      7.62371345	     -0.24532981	      6.44074438	     -7.94593617	     11.29747800	      0.40042011
